<svg xmlns="http://www.w3.org/2000/svg" viewBox="0 0 559.37 527.89"><title>product release</title><g id="background"><g id="BG"><path d="M38.92,511.77c33-3.64,65.77,2.3,98,9.07,31.67,6.66,63.26,12.87,95.49,16.2a699.6,699.6,0,0,0,99,3.18c33.7-1.31,67.23-5.06,100.77-8.28,37.39-3.6,74.91-6.49,112.49-4.79,1,0,1-1.46,0-1.5-66.84-3-133,8.61-199.54,12.41a707.72,707.72,0,0,1-99.19-1.25c-33.79-2.83-67-8.58-100.19-15.62-35.09-7.46-70.77-14.9-106.82-10.92-1,.11-1,1.61,0,1.5Z" transform="translate(-22.04 -27.68)" style="fill:#e8e8e8"/><path d="M300.43,514.27c67.19,6.16,133.44-13.84,200.34-16.48q28.85-1.14,57.69.62c1,.06,1-1.44,0-1.5a584.71,584.71,0,0,0-101.53,2.79c-33.21,3.83-66.13,10.08-99.48,12.86a327.06,327.06,0,0,1-57,.21c-1-.09-.95,1.41,0,1.5Z" transform="translate(-22.04 -27.68)" style="fill:#e8e8e8"/><path d="M30.57,455.22c62.47,6.34,123,27.91,186.31,26.5a.75.75,0,0,0,0-1.5C153.61,481.63,93,460.06,30.57,453.72c-.95-.09-.95,1.41,0,1.5Z" transform="translate(-22.04 -27.68)" style="fill:#e8e8e8"/><path d="M286.19,92.49a28.66,28.66,0,0,1,7-15.11h-1.06a25.18,25.18,0,0,1,8.26,13.42.75.75,0,0,0,1.44-.39,26.53,26.53,0,0,0-8.64-14.09.75.75,0,0,0-1.06,0,30.11,30.11,0,0,0-7.42,15.77c-.14,1,1.31,1.35,1.45.4Z" transform="translate(-22.04 -27.68)" style="fill:#e8e8e8"/><path d="M96.41,143c23.25.12,41.54,15.42,60.27,27.14A133,133,0,0,0,215.09,190c1,.09,1-1.41,0-1.5-23.34-2.18-44.25-10.77-63.71-23.58-16.78-11.06-34-23.33-55-23.44a.75.75,0,0,0,0,1.5Z" transform="translate(-22.04 -27.68)" style="fill:#e8e8e8"/><path d="M103.32,199c27.86,7.75,55.68,15.71,83.63,23.13,26.75,7.09,53.81,13.36,81.37,16.27,56.66,6,111.11-8.43,166.54-17.68a911.72,911.72,0,0,1,98.06-10.87c1-.05,1-1.55,0-1.5q-41.73,2.37-83.13,8.51C422,221,394.54,227,366.86,231.77c-28.15,4.86-56.56,8-85.15,6.27-28.79-1.79-57.13-7.76-85-14.9-31.13-8-62-17-93-25.56a.75.75,0,0,0-.4,1.44Z" transform="translate(-22.04 -27.68)" style="fill:#e8e8e8"/><path d="M408.62,140.83a666,666,0,0,1,172.07-25.07.75.75,0,0,0,0-1.5,667.36,667.36,0,0,0-172.47,25.13.75.75,0,0,0,.4,1.44Z" transform="translate(-22.04 -27.68)" style="fill:#e8e8e8"/><path d="M84.6,328.16a608.77,608.77,0,0,1,85.31,28.73c25.66,10.78,51.84,22.55,80.25,22a.75.75,0,0,0,0-1.5c-28.89.55-55.44-11.74-81.52-22.66a602.15,602.15,0,0,0-83.64-28,.75.75,0,0,0-.4,1.45Z" transform="translate(-22.04 -27.68)" style="fill:#e8e8e8"/><circle cx="50.44" cy="52.37" r="3.21" style="fill:#461eb8"/><circle cx="282.04" cy="2.22" r="2.22" style="fill:#461eb8"/><circle cx="347.82" cy="232.43" r="3.78" style="fill:#461eb8"/><circle cx="525.43" cy="146.92" r="2.81" style="fill:#461eb8"/><circle cx="122.82" cy="413.98" r="4.11" style="fill:#461eb8"/><circle cx="161.73" cy="486.3" r="4.76" style="fill:#461eb8"/><circle cx="393.65" cy="389.76" r="2.83" style="fill:#461eb8"/><circle cx="103.99" cy="67.68" r="3.07" style="fill:#ec615b"/><circle cx="127.62" cy="158.71" r="2.39" style="fill:#ec615b"/><circle cx="464.37" cy="48.72" r="3.65" style="fill:#ec615b"/><circle cx="285.67" cy="220.15" r="3.63" style="fill:#ec615b"/><circle cx="304.52" cy="413.98" r="4.11" style="fill:#ec615b"/><circle cx="547.99" cy="407.13" r="2.75" style="fill:#ec615b"/><path d="M143.2,68.58c2-2.9,5.05-6.29,8.38-3.06,1.2,1.16,1.89,2.61,3.48,3.33a6.22,6.22,0,0,0,7.15-1.64c1.33-1.4-.78-3.52-2.12-2.12-3.21,3.38-5.45-1.44-7.82-3.07a5.72,5.72,0,0,0-3.8-1c-3.65.29-5.91,3.22-7.86,6-1.11,1.58,1.49,3.08,2.59,1.51Z" transform="translate(-22.04 -27.68)" style="fill:#ec615b"/><path d="M158.06,74.64c2.78-.84,5.32,2.51,7.9,3.28a5,5,0,0,0,5.35-1.19c1.31-1.41-.81-3.54-2.13-2.12-1.8,1.94-4.85-1-6.46-2a6.62,6.62,0,0,0-5.46-.9c-1.84.56-1.06,3.45.8,2.89Z" transform="translate(-22.04 -27.68)" style="fill:#ec615b"/><path d="M389.13,482.2a4.82,4.82,0,0,0,4.85,3.87c3.89.09,6.73-4.66,10.58-3.65a1.5,1.5,0,0,0,.8-2.89,7.55,7.55,0,0,0-5.63.74c-1.64.83-7.06,5.23-7.71,1.13-.3-1.9-3.19-1.09-2.89.8Z" transform="translate(-22.04 -27.68)" style="fill:#ec615b"/><path d="M403.34,492c.69-2.07,1.86-3.71,4.11-2.65a19,19,0,0,1,3,2.3c1.74,1.31,3.47,2,5.51.94,1.73-.86.21-3.45-1.51-2.59-1.31.65-3.08-1.48-4-2.19a8.27,8.27,0,0,0-3.61-1.86c-3.4-.53-5.46,2.4-6.4,5.26-.61,1.83,2.29,2.62,2.89.79Z" transform="translate(-22.04 -27.68)" style="fill:#ec615b"/><path d="M25,324.38c.85-3.56,2.67-5.15,6.1-3,1.81,1.14,3.14,2.86,5.05,3.9,2.65,1.43,5.42,1.71,7.72-.42,1.41-1.32-.71-3.44-2.13-2.12-3.16,2.94-9.57-5.31-13.25-5.58-3.91-.29-5.59,3.11-6.38,6.39-.45,1.88,2.44,2.68,2.89.8Z" transform="translate(-22.04 -27.68)" style="fill:#461eb8"/><path d="M34.75,330.8c4.62,4.05,12.61,9.08,17.63,2.62,1.17-1.51-.94-3.65-2.12-2.13-3.9,5-10,.4-13.38-2.61-1.45-1.27-3.58.85-2.13,2.12Z" transform="translate(-22.04 -27.68)" style="fill:#461eb8"/><path d="M392.87,48.31c1.54-2.52,6.06,1.45,7.65,2.07a12.06,12.06,0,0,0,5.86.67,12.59,12.59,0,0,0,8.68-5.25c1.15-1.55-1.45-3-2.59-1.51a9.62,9.62,0,0,1-8.31,3.86C401.27,48,399.52,46,397,45s-5.22-.66-6.73,1.82c-1,1.65,1.58,3.16,2.59,1.51Z" transform="translate(-22.04 -27.68)" style="fill:#461eb8"/><path d="M405.25,56.85c6.49-7,18.48,7,25.28-2.46,1.13-1.57-1.48-3.07-2.59-1.51-3.57,4.95-11.44,0-15.91-.68-3.42-.54-6.5-.08-8.9,2.53-1.31,1.42.81,3.55,2.12,2.12Z" transform="translate(-22.04 -27.68)" style="fill:#461eb8"/></g><g id="lent"><path d="M69.28,272.85c19.78,5.09,45.57,11.1,76,16.52,13.21,2.36,72.38,12.64,139.45,15.2,107.44,4.11,203.08-12.82,256.43-24.45q-2.31,21.48-4.63,43a1719,1719,0,0,1-221.4,15.2A1718.41,1718.41,0,0,1,70.6,321.76Z" transform="translate(-22.04 -27.68)" style="fill:#461eb8"/></g><g id="bow"><path d="M380.15,351c-.78-4.5-8-4.08-23.3-11.24-10.2-4.77-10.9-6.79-26.64-15-4.63-2.41-8.69-4.37-11.89-5.87a14.18,14.18,0,0,0-26.56,4.53c-16.62,10.86-30.72,15.45-41,17.57-7.33,1.51-19.19,3.1-20.4,8.74-.69,3.28,2.77,5.3,7.08,12.07,8.28,13,5,20.4,9.57,22.48,8.64,3.9,28.27-18.49,41.63-33.71,1.32-1.52,2.52-2.91,3.61-4.19-2.3,6.86-4.5,14.4-6.43,22.57a264.19,264.19,0,0,0-6.65,46.61L287,402.85q3.79,9.11,7.6,18.2,6.39-40.71,12.8-81.42a13.65,13.65,0,0,0,3-.7c.88,7.14,1.58,14.65,2,22.5a344.36,344.36,0,0,1-1.54,57.35L321.7,403l8.85,10.77L319,338.17c14.23,14.52,26.34,50.17,36.18,47.81,3.86-.93,2.62-6.57,11.66-18.32C374.92,357.14,380.88,355.2,380.15,351Z" transform="translate(-22.04 -27.68)" style="fill:#ec615b"/></g><g id="picture"><rect x="181.97" y="63.08" width="181.4" height="122.23"/><rect x="187.75" y="70.1" width="169.78" height="108.07" style="fill:#fff;stroke:#000;stroke-miterlimit:10;stroke-width:0.5px"/><path d="M234.06,211.53a1.5,1.5,0,0,0,0-3,1.5,1.5,0,0,0,0,3Z" transform="translate(-22.04 -27.68)"/><path d="M208.69,179.36c8.2-4.81,18.07-3.21,26.94-1.5a195.24,195.24,0,0,1,24,6.47c16.9,5.53,33.63,11.61,50.42,17.46.91.31,1.3-1.13.4-1.45-18.52-6.45-36.95-13.37-55.69-19.14-13.6-4.18-33.37-11-46.82-3.13a.75.75,0,0,0,.76,1.29Z" transform="translate(-22.04 -27.68)"/><path d="M275.76,188.6c34.91,2.61,69.29-6.24,104.15-6.15a.75.75,0,0,0,0-1.5c-34.86-.09-69.24,8.76-104.15,6.15-1-.08-1,1.42,0,1.5Z" transform="translate(-22.04 -27.68)"/><path d="M334,184.5c-1.47-1.68-.44-4.22,1.19-5.39s3.92-1.46,5.93-1.68c.95-.1,1-1.61,0-1.5-2.88.31-6.24.75-8.12,3.24a5,5,0,0,0-.06,6.39c.64.73,1.7-.33,1.06-1.06Z" transform="translate(-22.04 -27.68)"/><path d="M342.47,173.86a3.85,3.85,0,0,1,4.46-5.29c.94.22,1.34-1.23.4-1.45a5.37,5.37,0,0,0-6.16,7.5c.39.88,1.68.12,1.3-.76Z" transform="translate(-22.04 -27.68)"/><path d="M348.24,167.65a4.7,4.7,0,0,1,4.42-5.88.75.75,0,0,0,0-1.5,6.22,6.22,0,0,0-5.86,7.78.75.75,0,0,0,1.44-.4Z" transform="translate(-22.04 -27.68)"/><path d="M356.54,163.78c0-2.35,2.7-.81,3.43-.15a9,9,0,0,1,1.53,1.79,10.44,10.44,0,0,1,1.54,4.09c.16,1,1.61.54,1.45-.4a10.88,10.88,0,0,0-4.44-7.32c-1.93-1.24-5-.78-5,2a.75.75,0,0,0,1.5,0Z" transform="translate(-22.04 -27.68)"/><path d="M366.21,168.66l3.1,1.21c.64.25,1.53.59,2.09,0,.92-1-.86-2.45-1.55-1.22-.47.84.83,1.6,1.3.76l.05-.11-.64.38-.41-.54.34-.45c-.26.18-1.5-.51-1.76-.61l-2.12-.82c-.9-.35-1.29,1.1-.4,1.44Z" transform="translate(-22.04 -27.68)"/><path d="M372.22,168.55a3.49,3.49,0,0,1,4.58.77c.62.74,1.68-.33,1.06-1.06a5,5,0,0,0-6.4-1c-.82.51-.07,1.81.76,1.29Z" transform="translate(-22.04 -27.68)"/><path d="M214.62,172.94a2.72,2.72,0,0,1,2.64-4.36c.94.18,1.35-1.27.4-1.44a4.21,4.21,0,0,0-4.33,6.56c.55.78,1.85,0,1.29-.76Z" transform="translate(-22.04 -27.68)"/><path d="M213.15,160.11c-.37-2,1.49-3.36,3.26-3.58a10.74,10.74,0,0,1,5,1c.9.34,1.29-1.11.4-1.45-2.43-.9-5.32-1.77-7.75-.38a4.5,4.5,0,0,0-2.37,4.81c.17,1,1.62.55,1.45-.4Z" transform="translate(-22.04 -27.68)"/><path d="M223.91,160.54a2.33,2.33,0,0,1,3.37-1.4,5.52,5.52,0,0,1,2.44,3.4c.31.91,1.76.52,1.45-.4-.69-2.07-2-4.32-4.37-4.72a3.7,3.7,0,0,0-4.33,2.72c-.18,1,1.26,1.35,1.44.4Z" transform="translate(-22.04 -27.68)"/><path d="M232.13,168.38a1.85,1.85,0,0,1,3.1.34.76.76,0,0,0,1.1.45,4,4,0,0,1,4.71.2c.76.58,1.82-.47,1.06-1.06a5.54,5.54,0,0,0-6.52-.44l1.1.45a3.34,3.34,0,0,0-5.61-1c-.62.74.44,1.8,1.06,1.06Z" transform="translate(-22.04 -27.68)"/><path d="M242.84,167.14A4.93,4.93,0,0,1,249,171c.17,1,1.62.55,1.45-.4a6.45,6.45,0,0,0-8-4.92.75.75,0,0,0,.4,1.45Z" transform="translate(-22.04 -27.68)"/><path d="M249.08,174.58a3.25,3.25,0,0,1,4.91,2c.2,1,1.65.55,1.45-.4a4.75,4.75,0,0,0-7.11-2.85c-.8.54-.05,1.84.75,1.29Z" transform="translate(-22.04 -27.68)"/><path d="M257.62,178.19c1.24-.05,3.7-.1,3.55,1.76-.08,1,1.42,1,1.5,0a2.93,2.93,0,0,0-1.42-2.64,6.21,6.21,0,0,0-3.63-.62c-1,0-1,1.54,0,1.5Z" transform="translate(-22.04 -27.68)"/><path d="M319.63,114.39c3.18-8.23,15.23-2.23,11.12,5.12-3.59,6.43-12.23,3.36-13.22-3.17-.15-1-1.59-.55-1.45.39a9.16,9.16,0,0,0,8.07,7.9,8.57,8.57,0,0,0,8.8-6.86,8.07,8.07,0,0,0-5.42-8.7c-4-1.32-7.9,1.18-9.35,4.92-.35.9,1.1,1.29,1.45.4Z" transform="translate(-22.04 -27.68)"/><path d="M252.65,168.06a112.56,112.56,0,0,1,14.57.58c1,.1.95-1.4,0-1.5a112.56,112.56,0,0,0-14.57-.58.75.75,0,0,0,0,1.5Z" transform="translate(-22.04 -27.68)"/><path d="M260.66,163.68a1.9,1.9,0,0,1,2.33-.34c.46.08.91.15,1.37.21a12.32,12.32,0,0,0,3.15-.27c3.11-.55,8.61-2.54,10.16,1.8.32.9,1.77.51,1.44-.4-2-5.58-8.23-3.27-12.49-2.79-1.88.21-3.5-.52-5.29-.47a2.34,2.34,0,0,0-2,.78,1.8,1.8,0,0,0,.54,2.78.75.75,0,0,0,.76-1.3Z" transform="translate(-22.04 -27.68)"/><path d="M281.07,171.31a3.39,3.39,0,0,1,4.49.72c.62.75,1.68-.32,1.06-1.06a4.87,4.87,0,0,0-6.31-.95c-.81.52-.06,1.82.76,1.29Z" transform="translate(-22.04 -27.68)"/><path d="M282.82,178.08c.71-2.52,4.28-.83,5.82-.61s3.72-.21,4.63,1.32a.75.75,0,0,0,1.29-.75c-1.46-2.47-5.07-1.86-7.49-2.45-2.22-.55-5-.55-5.69,2.09a.75.75,0,0,0,1.44.4Z" transform="translate(-22.04 -27.68)"/><path d="M286.23,168.5a7.28,7.28,0,0,1,8.26.68c.74.61,1.8-.45,1.06-1.06a8.84,8.84,0,0,0-10.08-.92.75.75,0,0,0,.76,1.3Z" transform="translate(-22.04 -27.68)"/><path d="M297.35,169.61a6.33,6.33,0,0,1,8.52,2.56c.45.85,1.75.09,1.29-.76a7.83,7.83,0,0,0-10.56-3.09c-.85.46-.1,1.76.75,1.29Z" transform="translate(-22.04 -27.68)"/><path d="M306.84,176.29a5.51,5.51,0,0,1,8.89.49A.75.75,0,0,0,317,176a7,7,0,0,0-11.25-.8c-.59.75.47,1.82,1.06,1.06Z" transform="translate(-22.04 -27.68)"/><path d="M308.16,167.59c5-2,9.91-.08,15,0,4.78.1,9.41-1.19,14-2.47a.75.75,0,0,0-.4-1.45c-5.91,1.66-11.5,2.82-17.65,2-3.95-.5-7.55-1.08-11.35.4-.89.35-.5,1.8.4,1.45Z" transform="translate(-22.04 -27.68)"/><path d="M325.72,163.17c2.23-4.23,5.72-2.57,9.15-4.16.93-.44,1.66-1.23,2.56-1.73a9.53,9.53,0,0,1,7-.84c.94.2,1.35-1.24.4-1.45a11.69,11.69,0,0,0-4.82-.21c-2.43.46-4.1,2.06-6.36,2.84-3.91,1.35-7,.54-9.21,4.79-.45.85.85,1.61,1.3.76Z" transform="translate(-22.04 -27.68)"/><path d="M223.39,126.43a130.44,130.44,0,0,0,18.72,3.16c6.82.62,15.2-.83,21.56,1.94.88.39,1.64-.91.76-1.29-5.29-2.31-11.06-1.52-16.69-1.77a125.8,125.8,0,0,1-24-3.48c-.94-.23-1.34,1.22-.4,1.44Z" transform="translate(-22.04 -27.68)"/><path d="M226,124.51c-1.65-1-4.79-3-3.5-5.28,1.43-2.57,5-1.36,7-.52.9.36,1.29-1.09.4-1.45-2.84-1.16-7.37-2-8.91,1.59-1.34,3.13,1.86,5.59,4.21,7a.75.75,0,0,0,.76-1.29Z" transform="translate(-22.04 -27.68)"/><path d="M237.57,118.21a.75.75,0,0,0,0-1.5.75.75,0,0,0,0,1.5Z" transform="translate(-22.04 -27.68)"/><path d="M240.81,111.91a14.65,14.65,0,0,1,6.92,8.34c.3.91,1.75.52,1.45-.4a16.26,16.26,0,0,0-7.62-9.24c-.84-.47-1.6.83-.75,1.3Z" transform="translate(-22.04 -27.68)"/><path d="M249.76,121.22a1.45,1.45,0,0,1,.21-2,2.29,2.29,0,0,1,2.75,0c1.4.81,2.1,2.44,2.75,3.85.41.87,1.7.11,1.3-.76-1.11-2.4-2.85-5.32-5.95-5-2.19.22-3.74,2.8-2.36,4.7.57.78,1.87,0,1.3-.75Z" transform="translate(-22.04 -27.68)"/><path d="M261.1,127l.61-2-.52.52a3.14,3.14,0,0,1,3.58,2c.32.91,1.77.52,1.45-.4a4.67,4.67,0,0,0-5.43-3.06.75.75,0,0,0-.53.52l-.6,2a.75.75,0,0,0,1.44.4Z" transform="translate(-22.04 -27.68)"/><path d="M266.94,138.82a98.58,98.58,0,0,0,25.61,1.38c.95-.07,1-1.57,0-1.5a96.86,96.86,0,0,1-25.21-1.33c-.94-.17-1.35,1.27-.4,1.45Z" transform="translate(-22.04 -27.68)"/><path d="M267.79,135.87c-1.44-1.58,4-.49,3.84-.52,1,.25,1.94.57,2.89.9a.76.76,0,0,0,.85-1.11,5.2,5.2,0,0,1-1.12-2.65l-.53.92a9.42,9.42,0,0,1,9.3,1c.79.55,1.54-.75.76-1.3A10.77,10.77,0,0,0,273.32,132a.77.77,0,0,0-.52.92,8.46,8.46,0,0,0,1.27,3l.85-1.1c-1.94-.67-5.86-2.48-7.87-1.11a2.07,2.07,0,0,0-.32,3.24c.65.71,1.71-.35,1.06-1.06Z" transform="translate(-22.04 -27.68)"/><path d="M301.86,133.25a.75.75,0,0,0,0-1.5.75.75,0,0,0,0,1.5Z" transform="translate(-22.04 -27.68)"/><path d="M328.51,136.38A231.87,231.87,0,0,0,368,126.21c.9-.32.51-1.77-.4-1.45a230.15,230.15,0,0,1-39.49,10.17c-.95.16-.55,1.6.39,1.45Z" transform="translate(-22.04 -27.68)"/><path d="M332.89,132.85c-2.93-2.15,3.82-4.41,4.59-4.54a10,10,0,0,1,5.22.54c.91.34,1.3-1.11.4-1.44a11.15,11.15,0,0,0-10,1c-2,1.35-3.29,4-1,5.72.78.57,1.53-.73.76-1.3Z" transform="translate(-22.04 -27.68)"/><path d="M346.44,125.5l1.25-.12a.77.77,0,0,0,.72-.55c.75-2.54,1.58-5.55,3.91-7.12a4.6,4.6,0,0,1,3.9-.78,2.89,2.89,0,0,1,1.49,4.29c-.56.79.74,1.54,1.3.76,2-2.91-.56-6.74-3.91-6.72-5,0-7,5.22-8.13,9.17l.72-.55-1.25.12c-.95.1-1,1.6,0,1.5Z" transform="translate(-22.04 -27.68)"/><path d="M359.05,120.21c1.37-1.59,2.79-3.33,4.78-4.14s4.9-.4,5.55,2.08a.75.75,0,0,0,1.45-.4,5.07,5.07,0,0,0-5.19-3.62c-3.29,0-5.68,2.72-7.65,5-.62.73.43,1.8,1.06,1.06Z" transform="translate(-22.04 -27.68)"/></g></g><g id="girl"><g id="leg_right" data-name="leg right"><path d="M524,511.26l1.62,10.55q-32.64,11.85-32,14.05.75,2.57,47.37-8.17-1.72-8.88-3.44-17.76Z" transform="translate(-22.04 -27.68)"/><path d="M538.46,292.43c.61,2.61,1.45,6.4,2.2,11,2.77,16.91,2.3,31.32-.45,56-1.73,15.45-4.26,34.1-8.08,55.26q1,8.88,2.12,17.95c3.24,25.34,7.4,49.56,12.22,72.58a28.61,28.61,0,0,1-8,4.31c-10,3.51-19.13.31-22.24-1-2.23-16.74-4.57-30.27-6.27-39.44-4.41-23.82-7.44-33.84-8-51.47-.33-10.38.37-17.95,1.49-28.91,1.95-19,4.93-45.89,9.42-79.51.45-.59.93-1.18,1.42-1.76C521.25,299.37,530.23,294.91,538.46,292.43Z" transform="translate(-22.04 -27.68)" style="fill:#fff"/><path d="M532.1,297.42q.63,10.44.7,21.5a397.38,397.38,0,0,1-12.14,98.86c1.81,9.52,3.37,19.71,4.51,30.53A372.76,372.76,0,0,1,526.45,511a27.57,27.57,0,0,0,20-5.79c-2.28-9.64-4.41-19.75-6.3-30.29a564.76,564.76,0,0,1-7.37-58.55c1.31-9.44,3.09-22.53,5.09-38.21,3.64-28.46,4.11-34.85,4.27-41.22a211.85,211.85,0,0,0-3.26-42.6Z" transform="translate(-22.04 -27.68)" style="fill:#919191;opacity:0.22"/><path d="M538.35,296.69c10.08,39.43-3.68,79.1-6.66,118.5-.08,1,1.42.95,1.5,0,3-39.54,16.73-79.32,6.61-118.9a.75.75,0,0,0-1.45.4Z" transform="translate(-22.04 -27.68)"/><path d="M531.38,414.7q5,45.69,14.37,90.73c.19.95,1.64.55,1.44-.4q-9.33-44.79-14.31-90.33c-.1-.95-1.61-1-1.5,0Z" transform="translate(-22.04 -27.68)"/><path d="M507.87,337.05q-5,38.91-6.58,78.12c0,1,1.46,1,1.5,0q1.6-39.18,6.58-78.12c.12-.95-1.38-.94-1.5,0Z" transform="translate(-22.04 -27.68)"/><path d="M501.59,420.48l12.73,80.8c.15,1,1.6.55,1.45-.4L503,420.08c-.15-.95-1.6-.55-1.45.4Z" transform="translate(-22.04 -27.68)"/><path d="M515.9,509.22a26.71,26.71,0,0,0,27.73-1.75c.79-.54,0-1.84-.76-1.29a25.17,25.17,0,0,1-26.22,1.75c-.85-.44-1.61.85-.75,1.29Z" transform="translate(-22.04 -27.68)"/></g><g id="leg_left" data-name="leg left"><path d="M489.74,513.09q.3,6.15.62,12.31-35.79,15.68-34.95,18,.94,2.61,49.33-12.09-1.83-10.65-3.64-21.32Z" transform="translate(-22.04 -27.68)"/><path d="M495.45,309.63c-1,2.43-2.71,6.41-4.59,11.39-8.77,23.15-11.07,38.08-18.58,67.79-1.63,6.45-4.17,16.23-7.58,28.22q3.58,24.8,7.09,49.6,3,21.47,6,42.95a28.11,28.11,0,0,0,32.93-5.24L498.81,414.5q6.63-18.31,14-37.2,10.51-27,21.39-52.09c4.5-10.71,1.41-22.32-5.89-27.37C519,291.37,502.23,295.24,495.45,309.63Z" transform="translate(-22.04 -27.68)" style="fill:#fff"/><path d="M526.42,343.53c-4.77,7.38-9.54,15.31-14.21,23.78a394.51,394.51,0,0,0-24.42,53.4,130.16,130.16,0,0,1-5,90.86,23.78,23.78,0,0,0,7,1.52c10.95.66,18.93-6.75,20.95-8.75q-5.44-44.91-10.9-89.84Q513.11,379,526.42,343.53Z" transform="translate(-22.04 -27.68)" style="fill:#919191;opacity:0.24"/><path d="M492.76,312.35Q477,362.81,465.29,414.42c-.21.94,1.24,1.34,1.45.4q11.67-51.58,27.47-102.07c.28-.93-1.16-1.32-1.45-.4Z" transform="translate(-22.04 -27.68)"/><path d="M528.86,336.83q-16.86,38.49-31,78.09c-.32.91,1.13,1.3,1.45.4q14-39.4,30.82-77.74c.38-.87-.91-1.64-1.3-.75Z" transform="translate(-22.04 -27.68)"/><path d="M498,415.38q6.52,44.4,11.95,89c.12,1,1.62,1,1.5,0Q506,459.6,499.44,415c-.14-1-1.58-.55-1.45.4Z" transform="translate(-22.04 -27.68)"/><path d="M465.6,421.18q4.69,43.19,11.19,86.13c.14.95,1.59.54,1.44-.4q-6.47-42.75-11.13-85.73c-.1-.94-1.6-1-1.5,0Z" transform="translate(-22.04 -27.68)"/><path d="M477.38,510.23c10.28,7.53,22.38,1.66,32.05-3.86a.75.75,0,0,0-.76-1.3c-9.21,5.27-20.69,11.07-30.53,3.86-.78-.57-1.53.73-.76,1.3Z" transform="translate(-22.04 -27.68)"/></g><g id="torso"><path d="M470.07,217.4A42.86,42.86,0,0,1,480,214c3.62-.76,18.3-3.34,30.84,5,7.74,5.14,11,12,15.89,22.43,2.72,5.77,3.69,9.38,8.41,25.55,3.18,10.87,5.73,19.45,7.17,24.3a49.15,49.15,0,0,1-8.41,9c-15.71,13.08-35.22,12.41-42.06,11.84q-2.91-17.34-5.83-34.69a151.31,151.31,0,0,0-6.32-13.91c-6-11.67-9.46-14.57-11.53-20.87C466.44,237.26,465.58,229.12,470.07,217.4Z" transform="translate(-22.04 -27.68)" style="fill:#ec615b"/></g><g id="hadn"><path d="M477,216.47a10.3,10.3,0,0,0-5.22,1.34,14.37,14.37,0,0,0-5.5,5.07,46,46,0,0,0-6.39,13.62c-1.51,6.3-4.8,16-12.24,31.81A205.77,205.77,0,0,1,432,282.11c-6.7,5.33-11.82,9.35-19.41,13.23a85.9,85.9,0,0,1-14.1,5.73c-1.05-.45-2.15-.89-3.32-1.31a59.21,59.21,0,0,0-7.15-2.07,5,5,0,0,0-2.19-3.39c-2.06-1.09-5.36-.05-7.21,3l-22.9,8.25q-7.92-10.95-15.86-21.89a20.84,20.84,0,0,0,1.19,5.66c1,2.86,2.33,4.45,6.68,10.42,1.42,1.94,2.65,3.66,3.67,5.07-6.88,2.14-12.35,3.8-16.66,4.89-1.36.35-4,1-5.38,3.24a6.74,6.74,0,0,0-.92,3.94l23-9,8.49,2.46q2.47,3,5.08,6,3.36,3.9,6.7,7.55a5.81,5.81,0,0,0,.31,4.86,5.15,5.15,0,0,0,3.59,2.61,5.33,5.33,0,0,0,4.66-2,5.58,5.58,0,0,0,.88-4.65l4.43-2.33a15,15,0,0,0,5.16,0,15.91,15.91,0,0,0,7.8-3.89,20.15,20.15,0,0,0,6.19-9.72c9.86-4.34,17.81-7.59,23.39-9.8,7.17-2.84,13.78-7.07,21.12-9.4a16,16,0,0,0,6.05-3.36,16.72,16.72,0,0,0,3.16-4,48.23,48.23,0,0,0,4.44-9.4c2.11-6.6,6.51-12.84,14.36-24,7.1-10.07,8.93-10.53,9.41-14.75C487.56,226.31,482.48,217,477,216.47ZM382.7,315l-3.9,5a7,7,0,0,1-4.7-.34c-1.73-.85-2.38-2.34-3.68-4.24a28.9,28.9,0,0,0-5.32-5.83,4.84,4.84,0,0,1-3-1.43c-.14-.18-.46-.58-.33-.89s.4-.34.75-.41a6.81,6.81,0,0,1,2.82.12l5.14-1.83c3-1.08,5.92-2.16,8.82-3.24,1.58,2.38,2.69,2.92,3.47,2.79,1.12-.19,1.39-1.73,2.45-1.79s2.36,1.4,2.68,2.91C388.38,307.81,387,309.46,382.7,315Z" transform="translate(-22.04 -27.68)" style="fill:#fff"/><path d="M379.25,315.55" transform="translate(-22.04 -27.68)" style="fill:#fff"/><path d="M483.44,230.27c-2.55,4.37-6.35,10.77-11.14,18.43-8,12.76-12,19.14-15,22.71-4,4.73-15.31,18.09-33,25.07-5.24,2.07-11.9,3.91-19.93,9.86a61.56,61.56,0,0,0-8.78,7.92l-19.23,11.29,11.35-3.6A12.46,12.46,0,0,0,393,322c6.79-1.44,9.74-8.37,10.1-9.24l2.32-4.09q12.65-5.15,25.93-11.12,12.42-5.61,23.91-11.31a44.15,44.15,0,0,0,4.3-6,45.22,45.22,0,0,0,3.71-7.8c2.63-7,9.16-18.27,16.19-26.91,3-3.66,6.56-7.51,5.66-11.87A7.79,7.79,0,0,0,483.44,230.27Z" transform="translate(-22.04 -27.68)" style="fill:#919191;opacity:0.21"/><path d="M471.44,217.16c-6.81,4.43-9.69,11.86-12.27,19.24-4,11.43-8.32,22.71-13.12,33.83-.38.88.91,1.64,1.29.76,3.88-9,7.52-18.08,10.84-27.28,3.23-9,5.53-19.74,14-25.26.8-.52.05-1.82-.76-1.29Z" transform="translate(-22.04 -27.68)"/><path d="M445.78,270c-7.66,5.2-14.12,11.91-21.67,17.26A134.22,134.22,0,0,1,399.33,301c-.88.38-.12,1.68.76,1.3a134.59,134.59,0,0,0,24.78-13.77c7.55-5.34,14-12.06,21.66-17.25.8-.54.05-1.84-.75-1.3Z" transform="translate(-22.04 -27.68)"/><path d="M399.63,300.72c-5-2-10.31-4.76-15.85-3.41-.93.23-.54,1.68.4,1.45,5.18-1.27,10.35,1.54,15.05,3.4.9.36,1.29-1.09.4-1.44Z" transform="translate(-22.04 -27.68)"/><path d="M383.36,301.37a12.19,12.19,0,0,1,4.28,4.84c.43.87,1.72.11,1.29-.75a13.62,13.62,0,0,0-4.82-5.39c-.81-.53-1.56.77-.75,1.3Z" transform="translate(-22.04 -27.68)"/><path d="M387.54,306.54c-3.39,7.4-9.72,12.94-12.62,20.61-.21.53.41,1.08.92.92a14.9,14.9,0,0,0,7.29-4.87c.61-.74-.44-1.8-1.06-1.06a13.48,13.48,0,0,1-6.63,4.48l.92.93c2.85-7.53,9.14-13,12.48-20.25.4-.87-.9-1.63-1.3-.76Z" transform="translate(-22.04 -27.68)"/><path d="M383.45,323.46l5.37-4.87c.72-.65-.35-1.7-1.06-1.06l-5.37,4.87c-.72.65.35,1.71,1.06,1.06Z" transform="translate(-22.04 -27.68)"/><path d="M384,323.48a15,15,0,0,0,7.55-3.36c.74-.62-.33-1.68-1.06-1.07a13.45,13.45,0,0,1-6.89,3c-1,.13-.55,1.58.4,1.45Z" transform="translate(-22.04 -27.68)"/><path d="M387.51,322.68c9.37,2.85,14.22-7.45,18.65-13.57.56-.79-.74-1.54-1.3-.76-4,5.55-8.37,15.5-16.95,12.88-.92-.28-1.32,1.16-.4,1.45Z" transform="translate(-22.04 -27.68)"/><path d="M405.91,309.73l31.87-14.19c6.9-3.08,17.65-5.55,21.32-12.9.43-.86-.87-1.62-1.3-.76-2.17,4.35-6.58,6-10.76,7.9q-6.82,3.06-13.66,6.08l-28.23,12.57c-.88.39-.12,1.69.76,1.3Z" transform="translate(-22.04 -27.68)"/><path d="M458.91,282.05a324.36,324.36,0,0,1,24.32-40.56c.56-.79-.74-1.55-1.29-.76a323.88,323.88,0,0,0-24.32,40.56c-.44.86.86,1.62,1.29.76Z" transform="translate(-22.04 -27.68)"/><path d="M383.09,300.68c-.49.62-1.09,0-1.25-.54a3.14,3.14,0,0,1,.15-1.84,2,2,0,0,1,1.27-1.36,1.23,1.23,0,0,1,1.43.57c.36.89,1.81.5,1.44-.4a2.68,2.68,0,0,0-2.83-1.69,3.44,3.44,0,0,0-2.76,2.48,3.87,3.87,0,0,0,.58,3.93,2.08,2.08,0,0,0,3-.09c.58-.76-.47-1.83-1.06-1.06Z" transform="translate(-22.04 -27.68)"/><path d="M388.71,296.77c-1.82-5.71-9-3.8-10.42,1.16-.63,2.2-.15,5,1.88,6.29a4.34,4.34,0,0,0,5.72-.76c.59-.75-.46-1.82-1.06-1.06a2.85,2.85,0,0,1-3.9.53,4.21,4.21,0,0,1-1.19-4.6c1-3.42,6.13-5.52,7.52-1.16.29.92,1.74.53,1.45-.4Z" transform="translate(-22.04 -27.68)"/><path d="M377.87,320.27c-3.47.78-6.73,4.64-3.93,8a3.61,3.61,0,0,0,4.16,1.15c1.75-.74,2.55-2.66,3.18-4.31.34-.9-1.11-1.29-1.45-.4a7.47,7.47,0,0,1-1.52,2.76,2.13,2.13,0,0,1-3.43-.45c-1.65-2.54,1.13-4.76,3.39-5.26.94-.21.54-1.66-.4-1.45Z" transform="translate(-22.04 -27.68)"/><path d="M378.44,320.28c-5.33-4.21-9.74,5.37-6.64,9.56a5.73,5.73,0,0,0,6.89,1.91c2.75-1.32,3.65-4.6,3.41-7.43-.08-.95-1.58-1-1.5,0,.29,3.42-2,8.13-6.13,5.89a4.72,4.72,0,0,1-2.36-4.5c.12-2.16,2.46-6.6,5.27-4.37.75.59,1.82-.46,1.06-1.06Z" transform="translate(-22.04 -27.68)"/><path d="M339.23,284.08q15,20.21,30.79,39.71c.61.75,1.67-.31,1.07-1.06q-15.73-19.37-30.56-39.41c-.57-.77-1.87,0-1.3.76Z" transform="translate(-22.04 -27.68)"/><path d="M329.27,317.94q25-10.67,50.5-20.23c.89-.34.5-1.79-.4-1.45q-25.65,9.63-50.86,20.39c-.88.37-.12,1.67.76,1.29Z" transform="translate(-22.04 -27.68)"/><path d="M357.32,307.43c2.3,2.22,5.72,1.18,8.05,3.52,3,3,5.28,6.46,8.42,9.32.71.65,1.77-.41,1.06-1.06-3.14-2.87-5.51-6.26-8.42-9.32a7.21,7.21,0,0,0-2.39-1.82c-1.85-.77-4.09-.19-5.65-1.7-.7-.67-1.76.39-1.07,1.06Z" transform="translate(-22.04 -27.68)"/><path d="M359.9,304.67c1.76,1.38,3.37,3.4,5.69,3.05,1.84-.27,3.87-1.55,5.6-2.24l6.84-2.74c.88-.36.49-1.81-.4-1.45l-8.71,3.49c-.78.31-2.89,1.51-3.73,1.49-1.47,0-3.14-1.81-4.23-2.66-.75-.59-1.82.46-1.06,1.06Z" transform="translate(-22.04 -27.68)"/><path d="M356.89,306.84a1,1,0,0,1-.44-1,.7.7,0,0,1,.88-.51c.66.31.09,1.21-.39.66-.63-.73-1.68.34-1.06,1.06a1.93,1.93,0,0,0,2.76,0,2,2,0,0,0-.45-3,2.17,2.17,0,0,0-3,.87,2.45,2.45,0,0,0,.94,3.15c.8.54,1.55-.76.76-1.3Z" transform="translate(-22.04 -27.68)"/><path d="M338.79,283.49c-.44,4.52.5,6.76,3.3,10.17,3.48,4.24,7,8.47,10.49,12.7.61.75,1.67-.32,1.06-1.06-4.86-5.87-14.13-13.81-13.35-21.81.1-1-1.41-1-1.5,0Z" transform="translate(-22.04 -27.68)"/><path d="M329.21,316.92c.85-7.81,16-9.79,22.41-11.34.93-.23.54-1.68-.4-1.45a124.85,124.85,0,0,0-18.77,5.66c-3.37,1.41-4.35,3.55-4.74,7.13-.1.95,1.4.95,1.5,0Z" transform="translate(-22.04 -27.68)"/><path d="M354.3,308.33a4.27,4.27,0,0,1,2-4.85,3.09,3.09,0,1,1-1.68,2.81c-.08-1-1.58-1-1.5,0a4.6,4.6,0,1,0,3.39-4.49c-2.9.77-4.39,4.18-3.62,6.92a.75.75,0,0,0,1.44-.39Z" transform="translate(-22.04 -27.68)"/></g><g id="head"><path d="M464.9,163.5a18.18,18.18,0,0,0-4.78,5.16,17.82,17.82,0,0,0-1.93,4.47c-1.13,3.86-3,9.41-5.67,17l4.39-2.22a43.3,43.3,0,0,0,2.63,7.54c2.35,5.13,4.07,8.9,7.56,10,4,1.24,8.15-1.83,9.07-2.51,7-5.23,6.24-15.26,6.14-16.35a4,4,0,0,0,3.24,0c1.92-1.12,1.68-4.33,1.55-6-.16-2.06-.32-4.07-1.84-5.08s-4.27-.63-6.45,1.1Z" transform="translate(-22.04 -27.68)" style="fill:#fff"/><path d="M470.94,170c-.38.33,2.93,3.5,4.62,8.78a24.08,24.08,0,0,1,0,13.85,24.8,24.8,0,0,1-8.92,12.67,13.87,13.87,0,0,0,5.47-.53,14.55,14.55,0,0,0,7.67-5.89,16.58,16.58,0,0,0,2.57-11.61,4.56,4.56,0,0,0,3.2-.7c1.88-1.39,1.68-4.22,1.55-6-.15-2.06-.31-4.16-1.84-5.08s-4.21-.32-6.28,1.66C472.92,171,471.2,169.77,470.94,170Z" transform="translate(-22.04 -27.68)" style="fill:#919191;opacity:0.21"/><path d="M460.22,166.65a143.63,143.63,0,0,0-8.64,24.16.75.75,0,0,0,1.1.84,16.85,16.85,0,0,0,4.76-3.17c.71-.66-.35-1.72-1.06-1.06a14.89,14.89,0,0,1-4.46,2.94l1.1.84a141.6,141.6,0,0,1,8.5-23.79c.4-.87-.89-1.63-1.3-.76Z" transform="translate(-22.04 -27.68)"/><path d="M456.25,188.73c1.72,5.25,3.66,10.64,7.44,14.8,1.26,1.39,2.79,2.95,4.79,3.08,2.57.16,5.85-2,8.06-3,.88-.41.12-1.7-.75-1.29-3,1.41-6.43,3.36-9.78,1.45-1.64-.94-3-3.46-3.95-5a51.93,51.93,0,0,1-4.37-10.44c-.3-.92-1.75-.53-1.44.4Z" transform="translate(-22.04 -27.68)"/><path d="M463.65,171.5a7,7,0,0,0-.58,4.05l1.44-.4a4.51,4.51,0,0,1,.57-2.92h-1.29a3.21,3.21,0,0,1-.43,3.34c-.59.77.71,1.52,1.29.76a4.66,4.66,0,0,0,.43-4.86.75.75,0,0,0-1.29,0,6.18,6.18,0,0,0-.72,4.08c.14.95,1.58.54,1.44-.4a5.21,5.21,0,0,1,.43-2.89c.4-.88-.89-1.64-1.29-.76Z" transform="translate(-22.04 -27.68)"/><path d="M458.08,190.7a5.1,5.1,0,0,0,5.79-2.89c.37-.88-.92-1.64-1.3-.75a3.62,3.62,0,0,1-4.09,2.2c-.94-.21-1.34,1.23-.4,1.44Z" transform="translate(-22.04 -27.68)"/><path d="M468.13,179.32h-.28a.75.75,0,0,0,0,1.5h.28a.75.75,0,0,0,0-1.5Z" transform="translate(-22.04 -27.68)"/><path d="M471.13,180.27a.75.75,0,0,0,0-1.5.75.75,0,0,0,0,1.5Z" transform="translate(-22.04 -27.68)"/><path d="M469.76,183.82a.75.75,0,0,0,0-1.5.75.75,0,0,0,0,1.5Z" transform="translate(-22.04 -27.68)"/><path d="M479.93,177.43c1.76-3.39,6.12-1.61,7,1.53.58,2.13-.51,9.36-4.23,7-.82-.51-1.57.78-.76,1.3,5,3.16,7.45-5.21,6.43-8.7-1.25-4.32-7.3-6.56-9.73-1.89-.44.85.85,1.61,1.3.76Z" transform="translate(-22.04 -27.68)"/><path d="M479,177.14a24.4,24.4,0,0,1-4.88-1.86,26.69,26.69,0,0,1-10.82-10.45,25.49,25.49,0,0,0-3.16,3.83,26,26,0,0,0-4,9.81,20,20,0,0,1-1-11.57,19.61,19.61,0,0,1,13-14.39c3-.88,3.69-.06,13.22.93,14.24,1.49,15.93,0,18.8,2.32,4.83,3.89,1.12,8.94,5.8,19.5,4.07,9.16,8.06,8,11.14,16.94a34.56,34.56,0,0,1,.7,19c-.88,3.44-1.77,6.91-4.88,9.75-5.09,4.65-12.09,3.92-13.69,3.71-.9.55-8,4.75-14.85,1.86-7.35-3.11-11.69-13.26-8.19-23.58l6.18-15.69a4.72,4.72,0,0,0,3.2-.7c3.19-2.2,3-9.52-.29-11.09C482.72,174.29,479.27,176.92,479,177.14Z" transform="translate(-22.04 -27.68)" style="fill:#461eb8"/></g></g><g id="guy"><g id="hand_left" data-name="hand left"><path d="M63.91,199.45c-3.78,2-4.71,6.94-5.17,9.63C56,225,55.9,233.15,55.9,233.15c-.42,7.43-.81,15.78-1.11,24.93a59.17,59.17,0,0,0-2,7.91c-1.12,6.17-.83,10.19-.55,17.88.7,19.59-.23,19.54.84,29.88.57,5.44.92,6.43.82,9.7-.22,6.45-1.85,9.88-.9,16a27.68,27.68,0,0,0,1.33,5.18,27.39,27.39,0,0,0,4-4.27A29.7,29.7,0,0,0,64.09,324q-1.23-7.26-2.47-14.54c.26-2,.71-5.23,1.34-9.26,2.76-17.49,4.67-21.76,5.24-33,.29-5.65-.16-5.26.22-11.18a170,170,0,0,1,2.87-20.6c2.44-13.29,3.17-12.73,3.19-16.51,0-5-1.15-11.89-6.57-20.29A8,8,0,0,0,63.91,199.45Z" transform="translate(-22.04 -27.68)" style="fill:#fff"/><path d="M62.08,200.63Q61,212.11,60.19,224q-1.48,21.61-2,42a107.82,107.82,0,0,0,3.44,61,22.49,22.49,0,0,1-.91,7.26,23.36,23.36,0,0,1-6.38,10.34c0-5.44,0-13.57-.44-23.47-.28-6.52-.42-7-1.16-20-1.22-21.26-1.26-27.38.06-35.18a91.6,91.6,0,0,1,2.53-10.83c0-1.7-.12-4.4-.14-7.7-.06-12.45-.11-21.46,2.1-31.69A86.52,86.52,0,0,1,62.08,200.63Z" transform="translate(-22.04 -27.68)" style="fill:#919191;opacity:0.18"/><path d="M61.43,200.25c-4.07,8-5.37,16.76-5.92,25.64-.67,10.72-1,21.46-1.47,32.19,0,1,1.46,1,1.5,0,.43-9.6.81-19.2,1.28-28.79.48-9.75,1.42-19.46,5.91-28.28.44-.86-.86-1.62-1.3-.76Z" transform="translate(-22.04 -27.68)"/><path d="M54.13,257.55c-3.14,9.16-2.85,18.71-2.58,28.26q.47,16.49.94,33a.75.75,0,0,0,1.5,0q-.45-15.51-.88-31c-.29-10-.85-20.15,2.46-29.8.32-.92-1.13-1.31-1.44-.4Z" transform="translate(-22.04 -27.68)"/><path d="M73,221.54c-2.48,14-5.34,27.86-5.48,42.15-.14,15.49-4.3,31.07-7.09,46.26-.18.95,1.27,1.35,1.44.4,2.59-14.08,6.58-28.6,7.09-42.94.27-7.7.33-15.17,1.52-22.82s2.63-15.11,4-22.65c.17-.95-1.27-1.35-1.44-.4Z" transform="translate(-22.04 -27.68)"/><path d="M60.89,311.07A39.31,39.31,0,0,1,63.34,324a.75.75,0,0,0,1.5,0,40.17,40.17,0,0,0-2.51-13.32c-.33-.9-1.78-.51-1.44.4Z" transform="translate(-22.04 -27.68)"/><path d="M52.8,318.79l-.45,15.37C52.24,338,52,341.52,53.7,345c.3.62,1.18.38,1.37-.18a49,49,0,0,0,2.57-14.13c0-1-1.46-1-1.5,0a47.17,47.17,0,0,1-2.52,13.73l1.37-.18c-2-4.1-1.16-9.32-1-13.71l.34-11.76c0-1-1.47-1-1.5,0Z" transform="translate(-22.04 -27.68)"/><path d="M60.88,327A28.32,28.32,0,0,1,57.71,340c-.44.86.85,1.62,1.29.76A30,30,0,0,0,62.38,327a.75.75,0,0,0-1.5,0Z" transform="translate(-22.04 -27.68)"/></g><g id="leg_left-2" data-name="leg left"><path d="M53.55,528.92,51,552.1q53.13-1.35,53.26-4.75.11-2.7-32.81-6.66L69.66,530Z" transform="translate(-22.04 -27.68)"/><path d="M61.94,304.25c-.43,2.35-1.2,6.66-2,12.07-2.36,15.62-3.19,27.76-3.6,34.19-1,16.51-4.94,83.94-9.7,176.1a54.3,54.3,0,0,0,14.05,2.77,54.9,54.9,0,0,0,20.53-2.66c.44-7.05,1.12-17.57,2-30.33,2.56-37.13,5-65.88,7.36-93.22,1.88-21.71,4.62-53.1,8.11-92Z" transform="translate(-22.04 -27.68)" style="fill:#fff"/><path d="M96.89,337.41q-5,24.06-10,48.12Q71.92,457.29,56.64,529a63.49,63.49,0,0,0,25.24-2.11Q85.06,470.26,90,411.26,93.16,373.81,96.89,337.41Z" transform="translate(-22.04 -27.68)" style="fill:#919191;opacity:0.17"/><path d="M61.22,304.05c-6.61,35.52-7.41,72.11-9.76,108.09C49,449.81,46.73,487.5,46,525.25a.75.75,0,0,0,1.5,0c.73-37.09,2.93-74.13,5.34-111.14,2.38-36.49,3.14-73.65,9.84-109.66.17-.95-1.27-1.35-1.45-.4Z" transform="translate(-22.04 -27.68)"/><path d="M46.42,527.34a47.7,47.7,0,0,0,35.66.25c.89-.35.5-1.8-.4-1.44a46.55,46.55,0,0,1-34.86-.26c-.9-.36-1.28,1.09-.4,1.45Z" transform="translate(-22.04 -27.68)"/><path d="M96.14,337.41Q86.39,431.9,80.45,526.72c-.06,1,1.44,1,1.5,0q5.94-94.8,15.69-189.31c.1-1-1.4-1-1.5,0Z" transform="translate(-22.04 -27.68)"/></g><g id="leg_right-2" data-name="leg right"><path d="M93.65,538.55l-2.37,17q56.08-4.77,56-7.54-.08-2.24-36.53-3.18l-1.12-6.44Z" transform="translate(-22.04 -27.68)"/><path d="M88.34,306.28c-.27,14.21-.53,28.68-.78,42.89q-1.64,92.32-2.87,184.66a28.24,28.24,0,0,0,9,4.72c14.42,4.47,27.57-4.73,29.71-6.28q1.08-29.46,1.53-59.73c.86-59.4-.25-116.66-2.92-171.6Z" transform="translate(-22.04 -27.68)" style="fill:#fff"/><path d="M87.69,341.76q3,34,7.66,70.14c5.73,43.83,12.9,85.24,21,124a26.72,26.72,0,0,1-12.72,3.76c-11,.34-18.39-6.46-20-8,2-26.37,3.44-53.83,4.25-82.31C89,411.82,88.78,375.87,87.69,341.76Z" transform="translate(-22.04 -27.68)" style="fill:#919191;opacity:0.19"/><path d="M121.48,305.33q5.24,113.39,1.13,226.94c0,1,1.46,1,1.5,0q4.11-113.44-1.13-226.94c0-1-1.54-1-1.5,0Z" transform="translate(-22.04 -27.68)"/><path d="M86.66,343.4q2.58,94.2-3.78,188.32c-.07,1,1.43,1,1.5,0q6.36-94,3.78-188.32c0-1-1.53-1-1.5,0Z" transform="translate(-22.04 -27.68)"/><path d="M84,534.2c3.59,4.92,11.51,6,17.19,6a34.63,34.63,0,0,0,20.62-6.8c.77-.56,0-1.87-.76-1.3a33.28,33.28,0,0,1-16.87,6.48c-5.58.49-15.21-.09-18.88-5.11-.56-.77-1.87,0-1.3.75Z" transform="translate(-22.04 -27.68)"/></g><g id="torso-2" data-name="torso"><path d="M61.5,200.19c-.24,1.22-.59,3-.94,5.23a134.13,134.13,0,0,0-.68,38.92,121.45,121.45,0,0,0,3.73,17.4q-2,8-3.76,16.67c-1.49,7.29-2.75,14.35-3.79,21.13a48.48,48.48,0,0,0,16.6,9.52c9.68,3.2,17.75,2.39,24.33,1.72a79,79,0,0,0,25.3-7A324.78,324.78,0,0,1,120,265.27c0-1.35,0-14-.17-30.23A111.31,111.31,0,0,0,118,213.61a98.78,98.78,0,0,0-3.67-13.69,74.9,74.9,0,0,0-52.81.27Z" transform="translate(-22.04 -27.68)" style="fill:#fff"/><path d="M71.17,197.53a110.12,110.12,0,0,0-2.25,31.76,108.14,108.14,0,0,0,11.94,42.12,104.63,104.63,0,0,0,31.65,35.95,61.72,61.72,0,0,1-10.72,2.69c-20.22,3.16-37.09-4.68-45.34-9.37q3.59-18.62,7.16-37.23a108.1,108.1,0,0,1-1.53-62.82Z" transform="translate(-22.04 -27.68)" style="fill:#919191;opacity:0.16"/><path d="M61,202.28c-8.1,19.41-2.28,40.07,1.88,59.66.2.95,1.65.55,1.45-.4-4.11-19.36-9.89-39.67-1.89-58.86.38-.89-1.08-1.27-1.44-.4Z" transform="translate(-22.04 -27.68)"/><path d="M61.56,266.76a311.43,311.43,0,0,0-5.86,33.92c-.11.95,1.39.95,1.5,0A309,309,0,0,1,63,267.16c.22-.94-1.23-1.34-1.45-.4Z" transform="translate(-22.04 -27.68)"/><path d="M56.3,301.58c19.45,14.94,44.85,11.55,66.19,3,.89-.36.5-1.81-.4-1.45-21,8.46-45.87,11.92-65-2.8-.76-.59-1.51.71-.76,1.29Z" transform="translate(-22.04 -27.68)"/><path d="M64.37,200.77a60.48,60.48,0,0,1,49.57,1.17c.87.41,1.63-.88.76-1.3A61.9,61.9,0,0,0,64,199.32c-.88.37-.49,1.82.4,1.45Z" transform="translate(-22.04 -27.68)"/><path d="M116.56,210.57c3.47,15.06,2.39,30.63,2.55,45.95q.24,23.26,2,46.47c.07,1,1.57,1,1.5,0q-1.77-24.17-2-48.4c-.11-14.85.78-29.84-2.59-44.41-.22-.94-1.66-.55-1.44.39Z" transform="translate(-22.04 -27.68)"/></g><g id="hand_right" data-name="hand right"><path d="M114.32,201.29c-.67-.19-7.78-2.08-12.09,2.09-2.65,2.57-2.93,6.17-3.19,9.46a25.65,25.65,0,0,0,1.36,10.23c2,6,5.06,9.86,8.78,14.54,2.93,3.68,7.54,9.5,14.13,17.95q-1.53,4.71-3.31,9.61c-2.66,7.28-5.5,14.08-8.41,20.39a27.21,27.21,0,0,0-4.8.71c-4.38,1.07-9.51,3.53-9.25,4.86.1.51,1.09,1.47,9.31,1.25A99.15,99.15,0,0,0,117,305.87c2.47,2.78,6,6.7,7.08,6s-.58-5.21-2.28-10c-1.33-3.76-2.64-6.77-3.57-8.76a153.75,153.75,0,0,0,14.51-17.34,154.33,154.33,0,0,0,9.59-15.11q-2.07-5.07-4.26-10.19C130.54,233.1,122.57,216.69,114.32,201.29Z" transform="translate(-22.04 -27.68)" style="fill:#fff"/><path d="M101.09,204.33q3.27,7,7.07,14.21a345.83,345.83,0,0,0,19.7,32.9,55.21,55.21,0,0,1-1.22,11.42c-3.23,15.06-11,19.85-11.61,30.09-.24,4.3.75,10.54,6.68,18.39L107,294.05q-9.24-1.38-9.36-3.32-.15-2.46,14.35-5.84c1.85-3.56,3.7-7.52,5.45-11.85a139,139,0,0,0,5.45-16.35c-5.11-7.41-9.32-13.29-12.12-17.13-6.89-9.48-9.19-12.21-10.55-17.19A31.25,31.25,0,0,1,101.09,204.33Z" transform="translate(-22.04 -27.68)" style="fill:#919191;opacity:0.1"/><path d="M100.37,204.13c-2,6.77-3.33,13-.42,19.76,3.47,8,9.4,15.35,14.16,22.61.53.81,1.83.06,1.29-.75-3.94-6-8.11-12-11.8-18.15-4.66-7.79-4.31-14.6-1.79-23.07a.75.75,0,0,0-1.44-.4Z" transform="translate(-22.04 -27.68)"/><path d="M113.77,205.09c5.29,7.79,9,16.61,13.14,25l13.2,27.1c.42.86,1.71.1,1.29-.76l-13.2-27.1c-4.11-8.44-7.84-17.26-13.14-25-.54-.79-1.84,0-1.29.76Z" transform="translate(-22.04 -27.68)"/><path d="M127.48,250.79c-5,2.52-6.3,7.43-7.72,12.48A109.69,109.69,0,0,1,111,285.19c-.46.85.84,1.61,1.29.75A108.88,108.88,0,0,0,119,270.68c2.19-6.24,2.69-15.28,9.22-18.6.86-.43.1-1.73-.76-1.29Z" transform="translate(-22.04 -27.68)"/><path d="M140.66,262c-5.33,12.85-17.25,21.12-24.48,32.75-.52.82.78,1.57,1.29.75,7.33-11.76,19.23-20.07,24.64-33.1.37-.89-1.09-1.28-1.45-.4Z" transform="translate(-22.04 -27.68)"/><path d="M111.3,284.51c-5.35,1.05-10.84,2.34-14.67,6.5a.76.76,0,0,0,.33,1.26,64.21,64.21,0,0,0,9.89.86.75.75,0,0,0,0-1.5,60.38,60.38,0,0,1-9.49-.81l.33,1.25c3.65-4,8.93-5.11,14-6.12.94-.19.54-1.63-.4-1.44Z" transform="translate(-22.04 -27.68)"/><path d="M117.54,293.55c2.56,5,5,10,5.41,15.71.07,1,1.57,1,1.5,0-.41-5.95-2.94-11.23-5.62-16.47-.44-.86-1.73-.1-1.29.76Z" transform="translate(-22.04 -27.68)"/><path d="M106.43,294.58c4.41,3.74,7.39,8.15,10.66,12.85,1.24,1.78,3.69,5.79,6.25,4.57.87-.41.11-1.71-.76-1.29-1.94.92-6.56-7.73-7.55-9.11a44.77,44.77,0,0,0-7.54-8.08c-.74-.62-1.8.44-1.06,1.06Z" transform="translate(-22.04 -27.68)"/></g><g id="head-2" data-name="head"><path d="M103.76,135.86c.64,2.82,1.25,5.72,1.81,8.7,1.49,7.9,2.48,15.43,3.1,22.5l-3.09-1.47a43.58,43.58,0,0,1-2.79,15.76,31.27,31.27,0,0,1-13.44,3l-.93,8.94L75,196.11l1.48-12q.21-7.46.41-14.9A5.86,5.86,0,0,1,73.82,158a6.31,6.31,0,0,1,6.77,1.43A25.9,25.9,0,0,1,86.43,145,26.51,26.51,0,0,1,103.76,135.86Z" transform="translate(-22.04 -27.68)" style="fill:#fff"/><path d="M88.42,147.68a22.39,22.39,0,0,0-4,14.53c.72,7.95,5.82,12.89,7.77,14.78a27.43,27.43,0,0,0,8.07,5.41,20.61,20.61,0,0,1-12.37,1,18.45,18.45,0,0,1-2.75-.92l-5.94,12.7-4.2.9a62.73,62.73,0,0,0,1.38-9.31,63.52,63.52,0,0,0-1.22-17.63c-3.08-1.19-5-3.78-4.81-6,.29-2.86,4.37-5.83,9.31-4.5Z" transform="translate(-22.04 -27.68)" style="fill:#919191;opacity:0.18"/><path d="M104.56,143.65a106.39,106.39,0,0,1,3.36,23.41l1-.72-3.08-1c-.92-.28-1.31,1.16-.39,1.45l3.07,1a.76.76,0,0,0,1-.73A108.22,108.22,0,0,0,106,143.25a.75.75,0,0,0-1.45.4Z" transform="translate(-22.04 -27.68)"/><path d="M104.83,165.59a45.64,45.64,0,0,1-2.77,15.56c-.33.91,1.12,1.3,1.45.4a46.7,46.7,0,0,0,2.82-16,.75.75,0,0,0-1.5,0Z" transform="translate(-22.04 -27.68)"/><path d="M82.26,181.88a20.12,20.12,0,0,0,16.67,1.76c.91-.3.52-1.75-.4-1.44A18.61,18.61,0,0,1,83,180.59a.75.75,0,0,0-.76,1.29Z" transform="translate(-22.04 -27.68)"/><path d="M88.6,184.31c-.2,2.93-.49,5.84-.9,8.74-.13.94,1.32,1.35,1.45.4.42-3,.74-6.08.95-9.14.07-1-1.43-1-1.5,0Z" transform="translate(-22.04 -27.68)"/><path d="M75.62,186.8a27.1,27.1,0,0,1-1.35,9.11c-.3.92,1.15,1.31,1.45.4a28.45,28.45,0,0,0,1.4-9.51.75.75,0,0,0-1.5,0Z" transform="translate(-22.04 -27.68)"/><path d="M76.88,168.5c-3.89-.08-6.57-2.56-5.36-6.56a4.52,4.52,0,0,1,2.74-3.27c1.69-.67,4-.75,5.09,1a.75.75,0,0,0,1.3-.75c-2.28-3.82-8.44-2.32-10.09,1.31-2.38,5.25.71,9.64,6.32,9.76a.75.75,0,0,0,0-1.5Z" transform="translate(-22.04 -27.68)"/><path d="M99.78,152.35a21,21,0,0,1,.2,4.41h1.5a24.23,24.23,0,0,0-.3-5c-.16-1-1.6-.55-1.45.4a21.74,21.74,0,0,1,.25,4.56c0,1,1.44,1,1.5,0a23.49,23.49,0,0,0-.25-4.81c-.15-.95-1.6-.54-1.45.4Z" transform="translate(-22.04 -27.68)"/><path d="M76.28,157.49c2.1.19,2.62,1.89,4.31,2s4.08-1.56,7.13-8.48a6.06,6.06,0,0,0,6.64-.92,6.27,6.27,0,0,0,1.83-5.26c10.57,1.16,18.69-2,19.45-5.72s-5.85-10.46-17.36-13.2a15.77,15.77,0,0,0-12.08-4.83,15.34,15.34,0,0,0-12.75,9.08c-.53-.21-7.66-2.86-13.56,1.39-5.13,3.7-7.11,11-4.43,17.6-.56.11-7.9,1.63-10.07,7.37-2.25,5.94,1.77,14.5,10.66,17.7-.53.69-4,5.37-2.55,10.19,2.15,6.87,13.1,9.6,17.28,6A6.63,6.63,0,0,0,72.84,186c3.22,1.59,6.49,1.72,7.93.17s.56-4.64-.51-7.9A26.8,26.8,0,0,0,75.82,170a6.44,6.44,0,0,1-6.41-6.64C69.63,159.43,73.68,157.25,76.28,157.49Z" transform="translate(-22.04 -27.68)" style="fill:#461eb8"/></g></g></svg>